# xmcd
#
# Track frame offsets: 
#        150
#        12990
#        23334
#        34836
#        45692
#        57513
#        68949
#        80294
#        93931
#        104761
#        115217
#        125749
#        138074
#        149543
#        161332
#        172629
#        184659
#        195742
#
# Disc length: 2776 seconds
#
# Revision: 2
# Processed by: cddbd v1.5.2PL0 Copyright (c) Steve Scherf et al.
# Submitted via: ExactAudioCopyFreeDBPlugin 1.0
#
DISCID=ee0ad612
DTITLE=Various Artist - New Orleans Blues 1940-1953 [CD2]
DYEAR=2004
DGENRE=Blues
TTITLE0=Dave Bartholomew - Who drank my Beer ?
TTITLE1=Smiley Lewis - Lonesome highway
TTITLE2=Edgar Blanchard - Creole gal blues
TTITLE3=Rose Mitchell - Baby please don't go
TTITLE4=Fats Matthews - Going down
TTITLE5=Little Bubber - Never trust a woman
TTITLE6=Papa Lightfoot - After while
TTITLE7=Billy Tate - Cryin' in the morning
TTITLE8=Bobby Marchan - Have mercy
TTITLE9=Boogie Bill Webb - Bad dog
TTITLE10=Eddie Lang - My baby left me
TTITLE11=Pee Wee Hughes - Going back home
TTITLE12=Smiley Lewis - Lying woman
TTITLE13=Archibald - Early morning blues
TTITLE14=Lloyd Price - So long
TTITLE15=Paul Gayten - Hey little girl
TTITLE16=Earl King - Beggin' at your mercy
TTITLE17=Annie Laurie - Annie's Blues
EXTD=
EXTT0=
EXTT1=
EXTT2=
EXTT3=
EXTT4=
EXTT5=
EXTT6=
EXTT7=
EXTT8=
EXTT9=
EXTT10=
EXTT11=
EXTT12=
EXTT13=
EXTT14=
EXTT15=
EXTT16=
EXTT17=
PLAYORDER=
